<?xml version="1.0" standalone="no"?>
<!DOCTYPE svg PUBLIC "-//W3C//DTD SVG 20010904//EN"
 "http://www.w3.org/TR/2001/REC-SVG-20010904/DTD/svg10.dtd">
<svg version="1.0" xmlns="http://www.w3.org/2000/svg"
 width="310.000000pt" height="106.000000pt" viewBox="0 0 310.000000 106.000000"
 preserveAspectRatio="xMidYMid meet">
<metadata>
Created by potrace 1.12, written by Peter Selinger 2001-2015
</metadata>
<g transform="translate(0.000000,106.000000) scale(0.100000,-0.100000)"
fill="#000000" stroke="none">
<path d="M1250 998 c-74 -38 -92 -127 -36 -182 21 -22 59 -37 164 -65 78 -22
94 -92 29 -131 -17 -11 -45 -20 -62 -20 -33 0 -110 32 -137 56 -15 14 -17 14
-28 -6 -9 -16 -8 -25 2 -37 25 -30 91 -53 155 -53 107 0 163 44 163 128 0 71
-28 92 -183 136 -89 26 -110 78 -50 126 36 28 97 26 150 -4 l43 -25 15 22 c14
19 13 22 -13 39 -64 43 -146 49 -212 16z"/>
<path d="M80 785 l0 -225 25 0 c24 0 25 3 25 58 0 56 1 59 50 107 30 30 53 45
58 40 5 -6 44 -54 87 -107 66 -83 81 -98 106 -98 16 0 29 3 29 6 0 3 -43 60
-95 126 l-94 121 91 96 91 96 -32 3 c-30 3 -42 -7 -153 -122 -66 -69 -124
-126 -129 -126 -5 0 -9 56 -9 125 l0 125 -25 0 -25 0 0 -225z"/>
<path d="M540 786 l0 -226 25 0 c24 0 24 2 27 88 l3 87 61 3 61 3 68 -91 c57
-77 71 -90 96 -90 16 0 29 3 29 7 0 3 -25 39 -55 80 -65 85 -73 103 -51 103
28 0 85 59 92 97 10 51 -11 108 -49 135 -29 21 -45 23 -169 26 l-138 4 0 -226z
m260 161 c57 -29 60 -101 6 -141 -23 -18 -42 -21 -119 -21 l-92 0 -3 88 -3 87
93 0 c55 0 103 -5 118 -13z"/>
<path d="M1010 785 l0 -225 25 0 25 0 0 225 0 225 -25 0 -25 0 0 -225z"/>
<path d="M1570 985 c0 -24 2 -25 75 -25 l75 0 0 -200 0 -200 25 0 25 0 0 200
0 200 75 0 c73 0 75 1 75 25 l0 25 -175 0 -175 0 0 -25z"/>
<path d="M2020 785 l0 -225 25 0 25 0 0 225 0 225 -25 0 -25 0 0 -225z"/>
<path d="M2200 785 l0 -225 25 0 25 0 2 182 3 183 144 -183 c96 -122 149 -182
162 -182 18 0 19 11 19 225 l0 225 -25 0 -25 0 -2 -172 -3 -172 -135 172
c-116 148 -139 172 -162 172 l-28 0 0 -225z"/>
<path d="M2710 785 l0 -225 165 0 165 0 0 25 0 25 -140 0 -141 0 3 78 3 77
118 0 c115 0 117 0 117 23 0 22 -2 22 -120 22 l-120 0 0 75 0 75 135 0 135 0
0 25 0 25 -160 0 -160 0 0 -225z"/>
</g>
</svg>
