<?xml version="1.0" encoding="utf-8"?>
<!-- Generator: Adobe Illustrator 15.0.0, SVG Export Plug-In . SVG Version: 6.00 Build 0)  -->
<!DOCTYPE svg PUBLIC "-//W3C//DTD SVG 1.1//EN" "http://www.w3.org/Graphics/SVG/1.1/DTD/svg11.dtd">
<svg version="1.1" id="Layer_1" xmlns="http://www.w3.org/2000/svg" xmlns:xlink="http://www.w3.org/1999/xlink" x="0px" y="0px"
	 width="306px" height="306px" viewBox="0 0 306 306" enable-background="new 0 0 306 306" xml:space="preserve">
<g id="Layer_500">
	<g>
		<path fill="#1D1D1B" d="M441,229.5c0,42.247-34.253,76.5-76.5,76.5H211.487C169.24,306,135,271.747,135,229.5v-153
			C135,34.24,169.24,0,211.487,0H364.5C406.747,0,441,34.24,441,76.5V229.5z"/>
		<g>
			<path fill="#FFFFFF" d="M218.092,121.635c0.038,8.989,0.217,18.035,0.261,27.068c0.013,9.723,0.039,19.45,0.039,29.166
				c0,54.442,49.98,69.876,59.562,69.876c9.594,0,47.149,0.88,53.926,0.88c6.789,0,26.246-1.779,26.246-21.273
				s-13.809-26.488-23.129-26.488h-37.287c-26.52,0-30.759-11.621-30.759-22.395c0-5.119,0.325-13.547,0.644-23.875h62.303
				c9.333,0,27.1-3.787,27.1-20.674c0-16.868-8.197-27.935-19.201-27.935h-69.423c-0.077-24.346-1.677-48.609-25.691-48.609
				c-9.932,0-17.997,4.042-21.395,14.076c-4.462,13.177-3.283,28.611-3.232,42.343C218.079,116.401,218.092,119.021,218.092,121.635
				z"/>
		</g>
	</g>
</g>
<g id="Layer_1_1_">
</g>
</svg>
